<?xml version="1.0" encoding="utf-8"?>
<!-- Generator: Adobe Illustrator 16.0.0, SVG Export Plug-In . SVG Version: 6.00 Build 0)  -->
<!DOCTYPE svg PUBLIC "-//W3C//DTD SVG 1.0//EN" "http://www.w3.org/TR/2001/REC-SVG-20010904/DTD/svg10.dtd">
<svg version="1.0" id="Layer_1" xmlns="http://www.w3.org/2000/svg" xmlns:xlink="http://www.w3.org/1999/xlink" x="0px" y="0px"
	 width="73px" height="22.125px" viewBox="0 0 73 22.125" enable-background="new 0 0 73 22.125" xml:space="preserve">
<rect x="54.396" y="0.563" fill="#6B9BD2" width="18.021" height="21.104"/>
<g>
	<path fill="#575880" d="M0.467,18.748c0,0.017,0.125-0.143,0.374-0.479c0.249-0.334,0.529-0.7,0.838-1.096
		c0.361-0.464,0.774-0.989,1.238-1.574c0.464,0.327,0.938,0.619,1.419,0.877c0.413,0.224,0.86,0.422,1.342,0.593
		c0.481,0.172,0.938,0.258,1.368,0.258c0.258,0,0.52-0.039,0.787-0.116c0.267-0.077,0.507-0.185,0.723-0.322
		c0.215-0.138,0.391-0.301,0.529-0.49c0.137-0.189,0.206-0.396,0.206-0.619c0-0.533-0.301-1.002-0.903-1.406
		c-0.602-0.404-1.341-0.778-2.219-1.123c-0.551-0.223-1.122-0.503-1.716-0.838c-0.593-0.335-1.135-0.739-1.625-1.212
		c-0.49-0.473-0.89-1.019-1.2-1.639c-0.31-0.619-0.464-1.315-0.464-2.089c0-0.74,0.125-1.445,0.375-2.116
		c0.249-0.671,0.623-1.264,1.122-1.78c0.499-0.516,1.118-0.924,1.857-1.226C5.257,2.051,6.125,1.9,7.123,1.9
		c0.774,0,1.479,0.095,2.116,0.284c0.636,0.189,1.212,0.413,1.729,0.671c0.516,0.258,0.962,0.529,1.341,0.813
		c0.378,0.284,0.697,0.521,0.955,0.709L10.89,7.602c-0.051-0.034-0.202-0.142-0.451-0.323c-0.25-0.181-0.555-0.37-0.916-0.567
		S8.757,6.333,8.31,6.17C7.862,6.007,7.398,5.925,6.917,5.925c-0.464,0-0.869,0.125-1.212,0.374c-0.344,0.25-0.516,0.546-0.516,0.89
		c0,0.482,0.228,0.916,0.684,1.303c0.456,0.387,1.2,0.787,2.232,1.2c0.499,0.206,1.053,0.464,1.664,0.774
		c0.61,0.31,1.178,0.696,1.703,1.161c0.524,0.464,0.963,1.019,1.316,1.664s0.529,1.406,0.529,2.283c0,0.671-0.139,1.346-0.413,2.025
		c-0.275,0.68-0.676,1.299-1.2,1.857c-0.525,0.559-1.166,1.016-1.922,1.367c-0.757,0.353-1.608,0.529-2.554,0.529
		c-0.843,0-1.647-0.112-2.412-0.336C4.048,20.795,3.36,20.532,2.75,20.23c-0.611-0.301-1.118-0.593-1.522-0.877
		C0.823,19.07,0.57,18.868,0.467,18.748z"/>
	<path fill="#575880" d="M15.586,2.597h4.463l4.283,9.804l4.283-9.804h4.463l-8.746,18.782L15.586,2.597z"/>
	<path fill="#575880" d="M50.674,14.646c-0.086,1.255-0.438,2.374-1.058,3.354c-0.258,0.413-0.59,0.821-0.993,1.225
		c-0.404,0.404-0.903,0.766-1.496,1.084c-0.594,0.318-1.29,0.571-2.09,0.761s-1.725,0.284-2.774,0.284
		c-1.341,0-2.602-0.254-3.779-0.762c-1.179-0.507-2.207-1.203-3.088-2.09c-0.881-0.885-1.573-1.917-2.077-3.096
		c-0.504-1.178-0.756-2.438-0.756-3.779c0-1.342,0.252-2.602,0.756-3.78s1.196-2.21,2.077-3.096c0.881-0.886,1.909-1.582,3.088-2.09
		C39.661,2.154,40.922,1.9,42.263,1.9c1.342,0,2.602,0.257,3.78,0.77c1.178,0.513,2.206,1.205,3.083,2.076l-2.838,2.831
		c-0.517-0.499-1.118-0.898-1.806-1.2c-0.688-0.301-1.429-0.452-2.22-0.452s-1.53,0.147-2.219,0.441
		c-0.688,0.294-1.29,0.7-1.806,1.218c-0.516,0.518-0.92,1.123-1.213,1.814c-0.292,0.691-0.438,1.434-0.438,2.229
		s0.146,1.538,0.438,2.229c0.293,0.691,0.697,1.296,1.213,1.814c0.516,0.519,1.118,0.924,1.806,1.218
		c0.688,0.294,1.428,0.441,2.219,0.441c1.101,0,1.948-0.139,2.542-0.417c0.593-0.278,1.027-0.59,1.303-0.938
		c0.31-0.399,0.49-0.851,0.542-1.354h-4.387v-4.025h8.411V14.646z"/>
</g>
<g>
	<path fill="#F7F7F7" d="M59.563,8.053h-0.74v2.03h-1.56v-7h3.05c0.34,0,0.662,0.065,0.965,0.195s0.566,0.307,0.79,0.529
		c0.224,0.224,0.399,0.487,0.53,0.79c0.13,0.304,0.195,0.625,0.195,0.966c0,0.267-0.041,0.52-0.121,0.76s-0.189,0.462-0.33,0.665
		c-0.139,0.203-0.307,0.383-0.5,0.54c-0.193,0.156-0.406,0.278-0.639,0.364l1.59,2.19h-1.92L59.563,8.053z M58.822,6.583h1.49
		c0.141,0,0.271-0.026,0.395-0.08c0.123-0.053,0.232-0.127,0.326-0.22c0.093-0.094,0.166-0.202,0.219-0.325
		c0.054-0.123,0.08-0.255,0.08-0.395c0-0.261-0.088-0.485-0.265-0.676c-0.177-0.189-0.388-0.301-0.635-0.335h-1.61V6.583z"/>
</g>
<g>
	<path fill="#F7F7F7" d="M66.656,8.523h3.267v1.56h-4.989v-7h4.989v1.56h-3.267v1.091h2.727v1.56h-2.727V8.523z"/>
</g>
<g>
	<path fill="#F7F7F7" d="M62.584,14.897c0,0.34-0.064,0.661-0.195,0.965c-0.13,0.303-0.307,0.568-0.529,0.795
		c-0.224,0.227-0.487,0.404-0.791,0.535c-0.303,0.13-0.625,0.194-0.965,0.194h-1.49v2.03h-1.559v-7h3.049
		c0.34,0,0.662,0.065,0.965,0.195c0.304,0.13,0.567,0.307,0.791,0.529c0.223,0.224,0.399,0.487,0.529,0.79
		C62.52,14.235,62.584,14.557,62.584,14.897z M58.613,15.917h1.49c0.141,0,0.271-0.026,0.396-0.08
		c0.123-0.053,0.231-0.127,0.325-0.22c0.094-0.094,0.166-0.202,0.22-0.325s0.08-0.255,0.08-0.395c0-0.261-0.089-0.485-0.265-0.676
		c-0.178-0.189-0.389-0.301-0.635-0.335h-1.611V15.917z"/>
</g>
<g>
	<path fill="#F7F7F7" d="M64.156,15.823c0-0.517,0.088-0.999,0.266-1.45c0.178-0.45,0.42-0.842,0.727-1.175s0.666-0.596,1.078-0.789
		c0.412-0.192,0.854-0.289,1.322-0.289c0.477,0,0.922,0.097,1.336,0.289c0.416,0.193,0.777,0.456,1.084,0.789
		s0.549,0.725,0.727,1.175c0.178,0.451,0.266,0.934,0.266,1.45c0,0.509-0.088,0.987-0.266,1.435s-0.42,0.838-0.727,1.171
		s-0.668,0.596-1.084,0.788c-0.414,0.192-0.859,0.289-1.336,0.289c-0.469,0-0.91-0.097-1.322-0.289s-0.771-0.455-1.078-0.788
		s-0.549-0.724-0.727-1.171S64.156,16.332,64.156,15.823z M65.566,15.823c0,0.302,0.053,0.584,0.158,0.846
		c0.105,0.263,0.248,0.49,0.426,0.684c0.178,0.194,0.389,0.347,0.629,0.458c0.242,0.111,0.498,0.167,0.77,0.167
		c0.279,0,0.539-0.056,0.785-0.167c0.244-0.111,0.457-0.264,0.637-0.458c0.182-0.193,0.324-0.421,0.426-0.684
		c0.104-0.262,0.154-0.544,0.154-0.846s-0.051-0.584-0.154-0.847c-0.102-0.262-0.244-0.492-0.426-0.688
		c-0.18-0.197-0.393-0.353-0.637-0.468c-0.246-0.114-0.506-0.172-0.785-0.172c-0.271,0-0.527,0.058-0.77,0.172
		c-0.24,0.115-0.451,0.271-0.629,0.468c-0.178,0.196-0.32,0.427-0.426,0.688C65.619,15.239,65.566,15.521,65.566,15.823z"/>
</g>
<g>
</g>
<g>
</g>
<g>
</g>
<g>
</g>
<g>
</g>
<g>
</g>
<g>
</g>
<g>
</g>
<g>
</g>
</svg>
